<svg version="1.2" xmlns="http://www.w3.org/2000/svg" viewBox="0 0 2048 2048" width="2048" height="2048">
	<style>
		.s0 { fill: #000000 } 
		.s1 { fill: #bd89f7 } 
	</style>
	<g id="Background">
		<path id="Path 0" class="s0" d="m978 358.93c-8.95 0.57-12.83 1.3-17.5 3.28-4.16 1.77-8.76 2.76-15 3.22-4.95 0.36-15.98 1.79-24.5 3.16-8.52 1.37-22.48 3.82-31 5.45-8.52 1.62-17.98 3.62-21 4.44-3.02 0.83-10.23 2.65-16 4.05-5.77 1.41-16.35 4.38-23.5 6.6-7.15 2.21-19.3 6.08-27 8.58-7.7 2.5-19.85 6.92-27 9.83-7.15 2.9-17.05 7.07-22 9.27-4.95 2.2-16.42 7.56-25.5 11.93-9.08 4.37-26.17 13.33-38 19.92-11.83 6.59-29.15 17.1-38.5 23.36-9.35 6.26-25.33 17.68-35.5 25.38-10.17 7.7-23.23 17.99-29 22.87-5.77 4.88-16.06 14.13-22.86 20.55-6.8 6.42-15.8 15.08-20 19.23-4.2 4.15-12.62 12.92-18.71 19.5-6.08 6.57-14.42 15.78-18.53 20.45-4.1 4.67-11.28 13.45-15.95 19.5-4.66 6.05-12.8 16.85-18.08 24-5.28 7.15-12.52 17.5-16.09 23-3.57 5.5-11.37 18.33-17.35 28.5-5.97 10.17-15.98 28.85-22.24 41.5-6.26 12.65-13.3 27.5-15.65 33-2.36 5.5-5.44 12.92-6.85 16.5-1.42 3.58-3.98 10.33-5.7 15-1.72 4.67-5.77 16.15-9 25.5-3.23 9.35-6.78 20.83-7.89 25.5-1.11 4.67-2.73 10.52-3.6 13-0.86 2.48-2.43 8.33-3.47 13-1.05 4.67-2.9 13.45-4.11 19.5-1.22 6.05-2.57 13.02-3 15.5-0.43 2.48-2.18 11.7-3.89 20.5-1.7 8.8-3.76 18.25-4.57 21-0.82 2.75-1.48 6.69-1.47 8.75 0.01 2.06-0.86 6.34-1.92 9.5-1.82 5.41-1.94 9.2-2.03 64.25-0.08 56.23-0.01 58.75 1.96 65 1.12 3.58 2.02 8.3 2 10.5-0.02 2.2 0.86 6.92 1.95 10.5 1.1 3.58 3.19 13.25 4.63 21.5 1.45 8.25 3.01 17.03 3.46 19.5 0.46 2.47 2.2 10.8 3.86 18.5 1.67 7.7 3.9 17.37 4.95 21.5 1.05 4.12 3.51 13.35 5.48 20.5 1.96 7.15 5.8 19.53 8.54 27.5 2.73 7.97 5.94 17.2 7.14 20.5 1.2 3.3 4.11 10.95 6.48 17 2.37 6.05 6.1 15.05 8.3 20 2.19 4.95 9.1 19.35 15.36 32 6.25 12.65 12.3 24.35 13.45 26 1.14 1.65 4.04 6.6 6.44 11 2.4 4.4 7.71 13.4 11.79 20 4.08 6.6 9.92 15.6 12.99 20 3.06 4.4 10.1 14.08 15.63 21.5 5.53 7.43 12.73 16.88 16 21 3.27 4.13 9.29 11.33 13.38 16 4.09 4.67 12.18 13.67 17.98 20 5.79 6.33 16.87 17.73 24.61 25.34 7.75 7.62 21.5 20.25 30.58 28.07 9.08 7.82 25.05 20.67 35.5 28.56 10.45 7.89 27.33 19.85 37.5 26.58 10.17 6.73 23 14.69 28.5 17.68 5.5 3 15.4 8.43 22 12.07 6.6 3.64 21 10.86 32 16.04 11 5.19 26.3 11.96 34 15.06 7.7 3.11 20.52 7.81 28.5 10.47 7.98 2.65 21.02 6.9 29 9.43 7.98 2.53 19.23 5.72 25 7.09 5.77 1.38 14.55 3.38 19.5 4.45 4.95 1.07 12.83 2.7 17.5 3.62 4.67 0.92 14.8 2.78 22.5 4.13 7.7 1.35 16.7 2.86 20 3.35 3.3 0.5 10.05 1.46 15 2.15 4.95 0.69 11.92 2.4 15.5 3.79l6.5 2.54 109-0.01c11.27-4.84 16.87-6.08 27.5-7.43 7.97-1.02 19.67-2.76 26-3.86 6.33-1.11 14.65-2.69 18.5-3.52 3.85-0.83 10.83-2.23 15.5-3.12 4.67-0.89 15.92-3.39 25-5.57 9.08-2.17 28.88-7.96 44-12.87 15.13-4.9 33.58-11.45 41-14.55 7.42-3.1 17.78-7.58 23-9.96 5.22-2.38 13.33-6.02 18-8.07 4.67-2.06 13.9-6.77 20.5-10.46 6.6-3.7 17.85-9.9 25-13.79 7.15-3.88 20.65-12.1 30-18.26 9.35-6.16 22.63-15.56 29.5-20.9 6.88-5.34 15.42-11.8 19-14.36 3.58-2.56 11.53-9.05 17.68-14.42 6.15-5.38 15.58-13.6 20.94-18.27 5.37-4.67 15.64-14.35 22.83-21.5 7.18-7.15 16.89-17.41 21.56-22.8 4.67-5.39 12.03-13.94 16.35-19 4.32-5.06 9.5-11.29 11.5-13.85 2-2.56 9.07-11.79 15.71-20.5 6.64-8.72 15.66-21.25 20.05-27.85 4.38-6.6 9.93-15.38 12.34-19.5 2.41-4.13 5.83-9.75 7.61-12.5 1.78-2.75 8.08-14 14.01-25 5.93-11 12.51-24.05 14.64-29 2.12-4.95 5.42-12.26 7.32-16.25 1.9-3.99 3.46-7.47 3.46-7.75 0-0.28 3.32-8.94 7.38-19.25 4.05-10.31 9.63-25.72 12.39-34.25 2.75-8.53 6.6-21.13 8.55-28 1.95-6.88 4.73-17.9 6.18-24.5 1.44-6.6 3.46-15.6 4.49-20 1.02-4.4 3.25-15.42 4.95-24.5 1.7-9.08 3.94-20.33 4.98-25 1.05-4.67 2.39-10.86 2.99-13.75 0.6-2.89 1.09-6.6 1.09-8.25 0-1.65 0.45-3.22 1-3.5 0.65-0.33 0.99-22.57 0.98-63.75-0.01-35.97-0.42-64.76-0.95-66.75-0.51-1.92-2.3-9.35-3.97-16.5-1.67-7.15-3.74-17.05-4.61-22-0.87-4.95-2.43-13.27-3.47-18.5-1.04-5.23-2.78-13.55-3.86-18.5-1.09-4.95-3.31-14.63-4.94-21.5-1.63-6.88-4.29-17.45-5.92-23.5-1.63-6.05-5.46-18.2-8.51-27-3.06-8.8-7.58-21.17-10.05-27.5-2.48-6.33-6.07-15.55-7.99-20.5-1.93-4.95-4.85-11.7-6.5-15-1.65-3.3-4.21-8.92-5.7-12.5-1.5-3.58-7.03-14.6-12.3-24.5-5.28-9.9-14.52-26.1-20.53-36-6.02-9.9-13.49-21.83-16.6-26.5-3.11-4.67-9.18-13.23-13.49-19-4.3-5.77-10.81-14.26-14.45-18.87-3.65-4.6-10.92-13.45-16.14-19.67-5.22-6.21-13.31-15.72-17.96-21.13-4.66-5.41-13.66-14.96-20-21.22-6.35-6.27-16.61-15.95-22.8-21.5-6.2-5.56-16.1-14.29-22-19.4-5.91-5.11-16.76-13.89-24.11-19.5-7.35-5.62-15.68-11.94-18.5-14.06-2.82-2.12-13-9.1-22.63-15.51-9.62-6.41-22.67-14.53-29-18.04-6.33-3.5-17.8-9.9-25.5-14.21-7.7-4.32-19.17-10.06-25.5-12.76-6.33-2.71-17.12-7.49-24-10.62-6.87-3.14-16.55-7.17-21.5-8.96-4.95-1.79-9.9-3.73-11-4.31-1.1-0.58-12.8-4.44-26-8.57-13.2-4.13-29.62-8.91-36.5-10.62-6.87-1.7-14.75-3.72-17.5-4.49-2.75-0.77-7.47-1.87-10.5-2.44-3.03-0.57-10.9-2-17.5-3.16-6.6-1.16-14.92-2.72-18.5-3.45-3.58-0.73-13.47-2.11-22-3.06-11.96-1.33-17.21-2.41-23-4.69l-7.5-2.95c-68.98-0.47-94.17-0.28-100.5 0.12z"/>
		<path id="Path 1" class="s1" d="m1000 431.04c-6.88 0.41-19.92 2.12-29 3.81-9.08 1.68-21.9 4.67-28.5 6.65-6.6 1.98-18.3 6.12-26 9.19-7.7 3.07-18.95 8.1-25 11.17-6.05 3.08-16.4 8.98-23 13.12-6.6 4.14-16.73 11.13-22.5 15.52-5.77 4.4-16.73 14.07-24.35 21.5-7.61 7.42-17.06 17.25-21 21.82-3.93 4.58-10.39 12.68-14.34 18-3.96 5.33-10.71 15.53-14.99 22.68-4.28 7.15-10.35 18.62-13.48 25.5-3.13 6.87-7.99 19.25-10.8 27.5-2.81 8.25-6.88 22.2-9.04 31-3.78 15.33-4.01 17.22-5.47 45-0.91 17.21-1.52 45.88-1.5 70.5l0.05 41.5-5.58 5.5c-86.52 0.47-93.49 0.72-96.5 2.09-1.92 0.88-4.96 3.24-6.75 5.25-1.84 2.08-3.53 5.28-3.89 7.41-0.36 2.06-0.35 147.3 0.01 322.75 0.37 175.45 0.99 322.46 1.4 326.68 0.51 5.39 1.36 8.52 2.83 10.5 1.16 1.55 3.64 3.68 5.5 4.73 3.18 1.8 7.14 1.98 61.9 2.88 32.17 0.53 207.45 1.15 389.5 1.37 182.05 0.22 332.46 0.17 334.25-0.13 1.79-0.29 4.66-1.77 6.38-3.28 1.73-1.51 3.75-3.99 4.5-5.5 0.76-1.51 2.06-7.14 2.9-12.5 1.12-7.18 1.81-25.42 2.6-69.25 0.7-38.54 0.9-150.75 0.56-318.5-0.38-191.23-0.82-259.78-1.67-262-0.63-1.65-2.58-4.48-4.33-6.29-1.92-1.98-5.19-3.88-8.19-4.76-4.07-1.2-13.33-1.47-49.75-1.46l-44.75 0.01-5-5c-0.29-38.36-0.44-67.05-0.54-88.5-0.13-30.93-0.51-41.17-1.83-49.5-0.92-5.78-3.04-15.9-4.7-22.5-1.67-6.6-5.23-18.53-7.91-26.5-2.68-7.98-7.17-19.67-9.98-26-2.81-6.33-7.63-16-10.71-21.5-3.08-5.5-7.53-12.92-9.88-16.5-2.36-3.58-7.58-10.84-11.62-16.15-4.03-5.31-11.38-14.25-16.33-19.87-4.95-5.61-14.85-15.61-22-22.21-7.15-6.61-17.28-15.07-22.5-18.8-5.22-3.74-13.78-9.47-19-12.73-5.22-3.27-14.67-8.69-21-12.04-6.33-3.35-16.9-8.19-23.5-10.76-6.6-2.57-15.83-5.98-20.5-7.59-4.67-1.61-13.67-4.22-20-5.8-6.33-1.59-16.22-3.82-22-4.95-5.78-1.13-17.92-2.52-27-3.08-9.08-0.55-20.33-0.95-25-0.87-4.67 0.08-14.12 0.48-21 0.89z"/>
		<path id="Path 2" class="s0" d="m982.5 463.12c-7.15 1.04-19.98 3.7-28.5 5.93-8.52 2.23-19.55 5.67-24.5 7.64-4.95 1.97-13.95 5.97-20 8.88-6.05 2.92-16.86 8.82-24.02 13.11-7.17 4.3-17.5 11.19-22.96 15.32-5.47 4.12-15.98 13.35-23.37 20.5-7.39 7.15-16.23 16.6-19.65 21-3.41 4.4-8.45 11.15-11.18 15-2.73 3.85-7.8 11.5-11.26 17-3.46 5.5-7.54 12.48-9.07 15.5-1.52 3.02-4.79 10.67-7.26 17-2.47 6.33-6.16 16.67-8.19 23-2.04 6.33-5.04 16.67-6.67 23-2.69 10.47-3.06 13.92-4.08 38.5-0.61 14.85-1.26 45.79-1.45 68.75l-0.34 41.75 5 5c53.74 0 54.12-0.03 56.4-2.25l2.3-2.25c1.08-79.05 1.8-107.63 2.31-114.5 0.5-6.88 1.64-15.65 2.53-19.5 0.89-3.85 3.11-11.5 4.94-17 1.83-5.5 4.49-13.04 5.92-16.75 1.43-3.71 4.62-10.8 7.1-15.75 2.48-4.95 7.96-14.29 12.18-20.75 6.29-9.62 10.77-14.84 24.75-28.82 9.39-9.39 20.08-19.29 23.76-22 3.67-2.71 12.67-8.17 20-12.12 8.75-4.73 18.45-8.94 28.31-12.29 8.25-2.8 17.48-5.74 20.5-6.53 3.02-0.79 10.67-2.35 17-3.48 6.33-1.13 17.58-2.32 25-2.65 9.87-0.44 16.46-0.16 24.5 1.01 6.05 0.88 14.15 2.07 18 2.63 3.85 0.56 11.28 2.2 16.5 3.65 5.22 1.45 15.35 4.91 22.5 7.68 8 3.11 17.8 7.96 25.5 12.63 6.88 4.17 16.1 10.24 20.5 13.49 4.4 3.25 14.35 12.24 22.11 19.98 10.53 10.5 15.96 16.86 21.39 25.07 4 6.05 10.14 16.85 13.64 24 3.5 7.15 8.13 18.4 10.29 25 2.16 6.6 4.61 14.48 5.45 17.5 0.85 3.02 2.47 11.12 3.6 18 1.84 11.1 2.14 18.6 2.72 67l0.66 54.5c4.61 4.47 5.01 4.5 31.19 4.5h26.54l5.28-5.5c-1.17-124.63-1.19-125.09-3.84-139.5-1.46-7.98-3.69-18.1-4.96-22.5-1.26-4.4-3.52-11.38-5.01-15.5-1.49-4.13-4.64-12.23-7-18-2.37-5.77-6.33-14.55-8.8-19.5-2.48-4.95-8.56-15.08-13.51-22.5-4.95-7.42-13.81-18.9-19.68-25.5-5.87-6.6-14.14-15.09-18.37-18.87-4.24-3.77-11.53-10.12-16.2-14.11-4.67-3.99-13.45-10.47-19.5-14.41-6.05-3.94-17.97-10.7-26.5-15.02-8.53-4.33-20.67-9.92-27-12.42-6.33-2.5-16.67-5.92-23-7.59-6.33-1.68-19.26-4.18-28.75-5.56-15.31-2.24-20.26-2.51-44-2.4-20.42 0.09-29.83 0.56-39.75 2zm11 93.89c-3.85 0.4-10.49 1.69-14.75 2.86-4.26 1.17-11.91 3.76-17 5.75-5.09 1.99-13.52 5.79-18.75 8.45-5.23 2.65-13.1 7.4-17.5 10.54-4.4 3.14-10.65 8-13.89 10.8-3.24 2.8-9.03 8.69-12.86 13.09-3.82 4.4-10.56 13.4-14.97 20-4.4 6.6-9.92 16.05-12.27 21-2.34 4.95-5.94 13.5-7.99 19-2.05 5.5-4.65 14.27-5.76 19.5-1.87 8.74-2.06 14.07-2.49 67-0.45 56.4-0.42 57.55 1.55 60l2 2.5c82.68 1.1 157.08 1.7 218.68 2.05 107.65 0.6 112.09 0.55 114.33-1.21l2.34-1.84c-0.2-68.2-0.68-90.92-1.19-94.5-0.52-3.58-0.94-10.77-0.95-16-0.01-5.23-0.67-13.33-1.47-18-0.8-4.67-2.85-12.55-4.55-17.5-1.7-4.95-6.63-16.2-10.97-25-6.91-14.02-9.17-17.54-18.31-28.5-5.74-6.88-13.54-15.4-17.33-18.94-3.8-3.54-10.28-8.91-14.4-11.94-4.13-3.03-12.45-8.09-18.5-11.25-6.05-3.15-14.6-7.16-19-8.91-4.4-1.75-11.6-4.27-16-5.6-4.4-1.33-12.05-2.85-17-3.37-4.95-0.53-19.13-0.9-31.5-0.84-12.38 0.07-25.65 0.45-29.5 0.86zm-310.75 294.67c-3.9 0.26-4.97 0.77-6 2.82-1.21 2.42-0.15 3.6 37.3 41.25 21.21 21.31 51.81 52.11 68 68.44 16.82 16.95 30.52 29.97 31.95 30.36 1.37 0.37 3.62 0.42 5 0.12 1.58-0.34 27.56-25.43 70.77-68.35 39.13-38.87 68.26-68.57 68.25-69.57-0.01-0.96-0.92-2.65-2.02-3.75-1.98-1.98-3.21-2-135.25-1.82-73.29 0.1-135.39 0.32-138 0.5zm321.25 2.15c-2.48 1.55-28.83 27.31-58.58 57.25-29.74 29.93-63.63 64.32-75.31 76.42-11.68 12.1-22.57 24.02-24.2 26.5-1.62 2.47-2.96 5.62-2.96 7 0 1.37 1.42 4.53 3.16 7 1.74 2.47 14.92 16.35 29.28 30.83 14.36 14.48 27.35 27.2 28.86 28.25 1.69 1.18 3.72 1.73 5.25 1.42 1.59-0.32 2.65-1.32 2.92-2.75 0.23-1.24 0.97-5.63 1.64-9.75 0.67-4.13 2.43-11.1 3.92-15.5 1.48-4.4 4.45-11.38 6.59-15.5 2.15-4.13 7.14-11.78 11.09-17 4.61-6.1 16.05-18.08 31.98-33.5 13.63-13.2 50.58-49.65 82.11-81 31.53-31.35 57.31-57.56 57.29-58.25-0.02-0.69-0.71-1.92-1.54-2.75-1.29-1.29-8.14-1.5-49.25-1.5h-47.76zm149.01-0.91c-1.93 1.04-15.71 14.19-30.63 29.24-14.92 15.04-42.08 42.42-60.35 60.84-30.64 30.89-33.19 33.72-32.63 36.25 0.4 1.81 1.38 2.9 2.86 3.17 1.23 0.23 5.62 0.97 9.75 1.63 4.12 0.66 11.32 2.55 16 4.2 4.67 1.65 10.97 4.1 14 5.46 3.02 1.35 8.86 4.78 12.97 7.63 4.11 2.84 11.81 9.44 17.1 14.66 5.3 5.23 11.59 12.2 13.97 15.5 2.39 3.3 6.04 9.15 8.12 13 2.07 3.85 4.83 10.15 6.14 14 1.3 3.85 3.22 11.05 4.26 16 1.08 5.19 2.64 9.75 3.66 10.75 0.98 0.97 2.23 1.75 2.78 1.75 0.55 0 9.66-8.21 20.25-18.25 10.58-10.03 42.65-41.68 71.25-70.33 28.6-28.65 71.57-71.98 95.5-96.3 23.92-24.32 43.62-44.75 43.78-45.41 0.15-0.66-0.37-2.11-1.17-3.21-1.43-1.97-2.74-2-107.78-2.23-102.46-0.22-106.46-0.16-109.83 1.65zm-504 26.28c-1.17 1.01-1.37 9.23-1.2 50 0.17 42.38 0.41 49.23 1.79 52.05 0.88 1.79 52.74 54.47 115.25 117.07 62.51 62.6 115.01 114.5 116.66 115.34 1.65 0.85 3.9 1.3 5 1.02 1.1-0.29 11.18-9.89 22.41-21.35 11.23-11.45 21.24-22.18 22.25-23.83 1-1.65 1.83-4.12 1.83-5.5-0.01-1.37-0.88-3.85-1.95-5.5-1.07-1.65-30.43-31.9-65.25-67.22-34.81-35.32-96.59-97.77-137.29-138.76-50.38-50.75-74.66-74.54-76.05-74.53-1.13 0.01-2.68 0.55-3.45 1.21zm735 8.58c-4.68 4.25-17.67 16.72-28.87 27.72-11.21 11-21.67 22.03-23.27 24.5l-2.89 4.5v286c4.44 6.98 18.85 21.94 34.88 37.75 20.41 20.14 29.82 28.77 31.4 28.8 1.23 0.02 2.92-0.72 3.75-1.66 1.32-1.5 1.47-25.53 1.25-205.54-0.2-161.16-0.52-204.42-1.51-206.6-0.82-1.79-2.13-2.82-3.75-2.97-1.87-0.17-4.62 1.71-10.99 7.5zm-128.46 128.47c-18.63 18.29-40.99 40.79-49.7 50-14.6 15.44-15.85 17.05-15.87 20.5-0.03 3.19 0.97 4.95 6.69 11.75 3.7 4.4 20.64 22.18 37.66 39.5 17.01 17.33 36.28 36.79 42.81 43.25 8.79 8.71 12.52 11.75 14.37 11.75 1.5 0 2.9-0.8 3.5-2 0.64-1.29 1-37.95 1.01-103.75 0.02-80.79-0.24-102.01-1.25-103.01-0.69-0.7-2.19-1.26-3.31-1.25-1.34 0.01-13.87 11.62-35.91 33.26zm-250.04-1.28c-3.85 1.02-9.03 2.72-11.5 3.78-2.48 1.06-7.2 3.63-10.5 5.72-3.3 2.08-8.7 6.13-12 9-3.3 2.86-8.31 8.32-11.14 12.12-2.82 3.8-7.04 10.74-9.36 15.41-3.69 7.4-4.4 9.93-5.49 19.5-0.76 6.7-0.93 13.16-0.45 16.5 0.43 3.03 0.84 8.65 0.9 12.5 0.05 3.85 0.88 9.25 1.83 12 0.95 2.75 3.97 8.82 6.72 13.49 2.74 4.66 7.46 11.13 10.49 14.36 3.02 3.24 8.42 8.03 12 10.65 3.57 2.62 7.68 6.28 9.12 8.13 1.44 1.86 3.09 4.95 3.65 6.87 0.8 2.7 0.62 5.47-0.78 12-1 4.68-6.31 26.73-11.8 49-5.5 22.28-11 45-12.24 50.5-1.24 5.5-3.31 14.39-4.6 19.75-1.29 5.37-2.35 11.1-2.35 12.75 0 1.67 0.89 3.89 2 5 1.95 1.96 3.35 2 64.25 2.03l62.25 0.03c3.45-3.53 4.47-5.68 4.48-7.06 0.02-1.37-2.19-11.95-4.9-23.5-2.72-11.55-8.98-37.2-13.92-57-4.95-19.8-9.93-40.61-11.08-46.25-1.14-5.63-2.08-11.82-2.08-13.75 0-1.92 0.61-4.96 1.35-6.75 0.75-1.78 3.59-5.27 6.32-7.75 2.74-2.47 7.41-6.33 10.4-8.57 2.98-2.25 7.08-6.07 9.11-8.5 2.02-2.44 5.98-8.25 8.79-12.93 2.82-4.67 6.01-11.42 7.09-15 1.37-4.5 1.96-9.26 1.93-15.5-0.03-4.95-0.45-14.4-0.92-21-0.8-11.06-1.19-12.7-5.04-21-2.29-4.95-6.11-11.7-8.47-15-2.37-3.3-6.27-7.81-8.68-10.03-2.41-2.21-7.31-6.1-10.88-8.63-3.58-2.53-9.43-6.06-13-7.84-3.58-1.78-9.88-4.09-14-5.13-5.32-1.34-10.85-1.87-19-1.82-7.83 0.04-13.74 0.66-18.5 1.92zm-356.01 17.61c-1.51 1.45-1.62 17.39-1.32 207.21l0.33 205.64c5.23 3.07 5.3 3.02 17.62-8.43 6.81-6.32 20.42-19.37 30.25-29 9.83-9.62 19.17-19.52 20.76-22l2.9-4.5-0.05-283c-4.56-7.85-12.61-16.65-21.66-25.5-8.71-8.52-22.26-21.46-30.09-28.75-7.83-7.28-14.88-13.25-15.66-13.25-0.79 0-2.17 0.71-3.08 1.58zm498.24 93.94c-7.28 6.88-17.4 17.01-22.48 22.5-5.09 5.49-9.53 11.22-9.88 12.73-0.36 1.63-0.01 3.98 0.86 5.75 0.82 1.65 60.66 62.63 132.98 135.5 72.33 72.88 134.72 135.32 138.65 138.75 3.92 3.44 7.78 6.25 8.57 6.25 0.78 0 2.13-0.67 3-1.5 1.38-1.32 1.56-7.06 1.52-48.75-0.03-44.32-0.15-47.46-1.92-50.75-1.04-1.92-13.74-15.42-28.23-30-14.49-14.57-31.06-31.48-36.83-37.58-5.76-6.09-14.2-14.64-18.77-19-4.56-4.35-36.51-36.44-71-71.3-34.48-34.86-65.74-66.02-69.45-69.25-5.48-4.76-7.41-5.87-10.27-5.87-3.13 0-4.97 1.38-16.75 12.52zm-393.73 9.48c-1.98 1.98-2 3.34-2 105.5v103.5c4.3 2.05 5.38 1.23 14.48-8.17 5.49-5.68 28.05-28.55 50.14-50.83 22.09-22.27 40.66-41.51 41.27-42.75 0.61-1.23 1.11-3.37 1.11-4.75 0-1.83-3.68-6.43-13.75-17.22-7.57-8.1-19.38-20.37-26.25-27.28-6.88-6.9-23.42-23.23-36.75-36.27-13.34-13.05-24.7-23.73-25.25-23.73-0.55 0-1.9 0.9-3 2zm159.5 95.74c-19.8 19.65-67.43 67.01-105.84 105.25-38.41 38.23-83.07 83.13-99.25 99.76-22.64 23.29-29.41 30.83-29.41 32.75 0 1.43 0.75 2.83 1.75 3.25 0.96 0.42 57.88 0.87 126.5 1 114.59 0.23 125.01 0.12 128-1.41 1.78-0.91 26.98-25.43 56-54.5 41.51-41.58 52.75-53.37 52.75-55.34 0-1.64-0.77-2.82-2.25-3.44-1.24-0.53-25.2-1.42-53.25-1.99-35.77-0.74-52.15-1.42-54.83-2.31-2.1-0.69-5.48-2.97-7.5-5.06-3.62-3.75-3.67-3.92-3.54-11.5 0.11-6.05 2.05-15.37 9.13-43.7 4.95-19.8 10.46-42.3 12.24-50 1.79-7.7 4.77-20.3 6.63-28 1.86-7.7 3.38-15.46 3.37-17.25 0-2.7-0.38-3.24-2.25-3.24-1.62 0-12.38 10.05-38.25 35.73zm181.84-33.99c-0.33 0.97-0.29 3.33 0.09 5.25 0.38 1.93 4.73 20.83 9.67 42 4.94 21.18 11.01 46.83 13.48 57 2.48 10.18 5.21 22.55 6.06 27.5 0.85 4.95 1.29 10.8 0.98 13-0.38 2.66-1.67 5.14-3.85 7.37-1.8 1.86-4.74 3.99-6.52 4.75-1.79 0.76-6.74 1.66-11 2-5.44 0.44-8.95 1.31-11.75 2.94-2.2 1.27-28.08 26.4-57.5 55.83-50.19 50.2-53.43 53.66-52.39 55.82l1.11 2.29c52.53 1.16 74.3 1.51 82.28 1.52 14.31 0.01 14.55-0.02 19-2.89 2.47-1.6 35.41-33.89 73.19-71.77 40.7-40.8 68.96-69.87 69.34-71.36 0.39-1.47 0.05-3.72-0.83-5.5-0.82-1.65-29.89-31.01-64.6-65.25-34.7-34.23-63.79-62.25-64.63-62.25-0.84 0-1.8 0.79-2.13 1.75zm153.05 155.54c-1.15 0.67-9.48 8.19-18.5 16.71-9.02 8.52-34.95 33.94-57.63 56.5-26.48 26.33-41.25 41.72-41.27 43-0.01 1.1 0.54 2.57 1.24 3.27 1.01 1.01 25.27 1.26 118.82 1.25 92.7-0.01 117.8-0.28 118.76-1.27 0.67-0.68 1.21-1.81 1.2-2.5-0.01-0.68-5.16-6.76-11.44-13.5-6.29-6.73-31.73-32.5-56.53-57.25-24.81-24.75-46.1-45.54-47.32-46.21-1.22-0.67-2.9-1.21-3.72-1.21-0.83 0-2.45 0.54-3.61 1.21z"/>
	</g>
</svg>
